<svg aria-hidden="true" style="position: absolute; width: 0; height: 0; overflow: hidden;" version="1.1" xmlns="http://www.w3.org/2000/svg" xmlns:xlink="http://www.w3.org/1999/xlink">
<defs>
<symbol id="icon-menu" viewBox="0 0 47 32">
<path stroke-linejoin="round" stroke-linecap="round" stroke-miterlimit="4" stroke-width="4.3636" d="M1.96 29.154h42.965M1.96 15.615h42.965M1.96 2.077h42.965"></path>
</symbol>
<symbol id="icon-shopping-cart" viewBox="0 0 32 32">
<path d="M0.762 3.251c0-0.256 0.102-0.501 0.283-0.682s0.426-0.283 0.682-0.283h2.895c0.215 0 0.424 0.072 0.594 0.205s0.29 0.318 0.342 0.527l0.782 3.129h22.41c0.142 0 0.282 0.031 0.41 0.092s0.242 0.148 0.332 0.257c0.090 0.109 0.156 0.237 0.191 0.374s0.041 0.28 0.014 0.42l-2.895 15.441c-0.041 0.221-0.159 0.421-0.332 0.565s-0.391 0.223-0.616 0.223h-17.372c-0.225-0-0.443-0.079-0.616-0.223s-0.29-0.343-0.332-0.565l-2.893-15.412-0.772-3.102h-2.143c-0.256 0-0.501-0.102-0.682-0.283s-0.283-0.426-0.283-0.682zM6.749 8.076l2.534 13.511h15.77l2.534-13.511h-20.839zM10.413 23.517c-1.024 0-2.006 0.407-2.73 1.131s-1.131 1.706-1.131 2.73c0 1.024 0.407 2.006 1.131 2.73s1.706 1.131 2.73 1.131c1.024 0 2.006-0.407 2.73-1.131s1.131-1.706 1.131-2.73c0-1.024-0.407-2.006-1.131-2.73s-1.706-1.131-2.73-1.131zM23.925 23.517c-1.024 0-2.006 0.407-2.73 1.131s-1.131 1.706-1.131 2.73c0 1.024 0.407 2.006 1.131 2.73s1.706 1.131 2.73 1.131c1.024 0 2.006-0.407 2.73-1.131s1.131-1.706 1.131-2.73c0-1.024-0.407-2.006-1.131-2.73s-1.706-1.131-2.73-1.131zM10.413 25.448c0.512 0 1.003 0.203 1.365 0.565s0.565 0.853 0.565 1.365c0 0.512-0.203 1.003-0.565 1.365s-0.853 0.565-1.365 0.565-1.003-0.203-1.365-0.565c-0.362-0.362-0.565-0.853-0.565-1.365s0.203-1.003 0.565-1.365 0.853-0.565 1.365-0.565zM23.925 25.448c0.512 0 1.003 0.203 1.365 0.565s0.565 0.853 0.565 1.365c0 0.512-0.203 1.003-0.565 1.365s-0.853 0.565-1.365 0.565c-0.512 0-1.003-0.203-1.365-0.565s-0.565-0.853-0.565-1.365c0-0.512 0.203-1.003 0.565-1.365s0.853-0.565 1.365-0.565z"></path>
</symbol>
<symbol id="icon-phone" viewBox="0 0 32 32">
<path d="M25.13 16.469c-0.148-0.149-0.325-0.267-0.519-0.347s-0.402-0.122-0.612-0.122c-0.21 0-0.418 0.041-0.612 0.122s-0.37 0.199-0.519 0.347l-2.55 2.55c-1.182-0.352-3.389-1.152-4.787-2.55s-2.198-3.605-2.55-4.787l2.55-2.55c0.149-0.148 0.267-0.325 0.347-0.519s0.122-0.402 0.122-0.612c0-0.21-0.041-0.418-0.122-0.612s-0.199-0.37-0.347-0.519l-6.4-6.4c-0.148-0.149-0.325-0.267-0.519-0.347s-0.402-0.122-0.612-0.122c-0.21 0-0.418 0.041-0.612 0.122s-0.37 0.198-0.519 0.347l-4.339 4.339c-0.608 0.608-0.95 1.443-0.938 2.296 0.037 2.278 0.64 10.192 6.877 16.429s14.15 6.838 16.43 6.877h0.045c0.845 0 1.643-0.333 2.248-0.938l4.339-4.339c0.149-0.149 0.267-0.325 0.347-0.519s0.122-0.402 0.122-0.612c0-0.21-0.041-0.418-0.122-0.612s-0.199-0.37-0.347-0.519l-6.4-6.402zM24.927 27.208c-1.997-0.034-8.829-0.57-14.197-5.939-5.386-5.386-5.907-12.242-5.939-14.198l3.208-3.208 4.138 4.138-2.069 2.069c-0.188 0.188-0.326 0.42-0.402 0.675s-0.087 0.524-0.033 0.785c0.038 0.184 0.978 4.547 3.634 7.203s7.019 3.595 7.203 3.634c0.26 0.056 0.53 0.045 0.785-0.030s0.487-0.215 0.674-0.403l2.070-2.069 4.137 4.138-3.21 3.208z"></path>
</symbol>
<symbol id="icon-map" viewBox="0 0 32 32">
<path d="M16 19.2c3.529 0 6.4-2.87 6.4-6.4s-2.87-6.4-6.4-6.4c-3.53 0-6.4 2.87-6.4 6.4s2.87 6.4 6.4 6.4zM16 9.6c1.765 0 3.2 1.435 3.2 3.2s-1.435 3.2-3.2 3.2c-1.765 0-3.2-1.435-3.2-3.2s1.435-3.2 3.2-3.2zM15.072 31.702c0.271 0.193 0.595 0.297 0.928 0.297s0.657-0.104 0.928-0.297c0.486-0.344 11.918-8.598 11.872-18.902 0-7.058-5.742-12.8-12.8-12.8s-12.8 5.742-12.8 12.792c-0.046 10.312 11.385 18.566 11.872 18.91zM16 3.2c5.294 0 9.6 4.306 9.6 9.608 0.034 7.101-7.021 13.477-9.6 15.568-2.578-2.093-9.633-8.47-9.6-15.576 0-5.294 4.306-9.6 9.6-9.6zM16 19.2c3.529 0 6.4-2.87 6.4-6.4s-2.87-6.4-6.4-6.4c-3.53 0-6.4 2.87-6.4 6.4s2.87 6.4 6.4 6.4zM16 9.6c1.765 0 3.2 1.435 3.2 3.2s-1.435 3.2-3.2 3.2c-1.765 0-3.2-1.435-3.2-3.2s1.435-3.2 3.2-3.2zM15.072 31.702c0.271 0.193 0.595 0.297 0.928 0.297s0.657-0.104 0.928-0.297c0.486-0.344 11.918-8.598 11.872-18.902 0-7.058-5.742-12.8-12.8-12.8s-12.8 5.742-12.8 12.792c-0.046 10.312 11.385 18.566 11.872 18.91zM16 3.2c5.294 0 9.6 4.306 9.6 9.608 0.034 7.101-7.021 13.477-9.6 15.568-2.578-2.093-9.633-8.47-9.6-15.576 0-5.294 4.306-9.6 9.6-9.6z"></path>
</symbol>
<symbol id="icon-mail" viewBox="0 0 32 32">
<path d="M0.1 7.036c0.202-0.906 0.697-1.715 1.406-2.295s1.588-0.895 2.494-0.895h24c0.906-0 1.786 0.315 2.494 0.895s1.204 1.389 1.406 2.295l-15.9 9.967-15.9-9.967zM0 9.378v14.572l11.606-7.298-11.606-7.274zM13.522 17.856l-13.14 8.261c0.325 0.702 0.837 1.295 1.478 1.71s1.383 0.635 2.14 0.634h24c0.758 0 1.5-0.22 2.14-0.636s1.152-1.009 1.476-1.711l-13.14-8.26-2.476 1.553-2.478-1.551zM20.394 16.654l11.606 7.296v-14.572l-11.606 7.276z"></path>
</symbol>
<symbol id="icon-facebook" viewBox="0 0 32 32">
<path d="M31.333 15.427c0-8.52-6.865-15.427-15.331-15.427-8.471 0.002-15.335 6.907-15.335 15.429 0 7.698 5.607 14.080 12.936 15.237v-10.78h-3.89v-4.458h3.894v-3.402c0-3.865 2.29-6 5.791-6 1.679 0 3.432 0.301 3.432 0.301v3.795h-1.934c-1.903 0-2.497 1.19-2.497 2.411v2.894h4.251l-0.678 4.458h-3.574v10.78c7.328-1.158 12.936-7.539 12.936-15.238z"></path>
</symbol>
<symbol id="icon-instagram" viewBox="0 0 32 32">
<path d="M16.667 1.333c-3.98 0-4.481 0.018-6.044 0.088-1.564 0.073-2.629 0.319-3.562 0.682-0.979 0.368-1.865 0.946-2.598 1.692-0.746 0.733-1.323 1.619-1.692 2.598-0.363 0.931-0.611 1.998-0.682 3.557-0.070 1.567-0.088 2.066-0.088 6.052 0 3.982 0.018 4.481 0.088 6.044 0.073 1.562 0.319 2.627 0.682 3.56 0.376 0.964 0.876 1.782 1.692 2.598 0.814 0.816 1.632 1.318 2.596 1.692 0.935 0.363 1.998 0.611 3.56 0.682 1.566 0.070 2.064 0.088 6.048 0.088s4.481-0.018 6.046-0.088c1.56-0.073 2.629-0.319 3.562-0.682 0.978-0.368 1.864-0.946 2.596-1.692 0.816-0.816 1.316-1.634 1.692-2.598 0.361-0.933 0.609-1.998 0.682-3.56 0.070-1.564 0.088-2.062 0.088-6.046s-0.018-4.482-0.088-6.048c-0.073-1.56-0.321-2.627-0.682-3.559-0.369-0.979-0.946-1.865-1.692-2.598-0.732-0.747-1.619-1.324-2.598-1.692-0.935-0.363-2.002-0.611-3.562-0.682-1.566-0.070-2.063-0.088-6.048-0.088h0.004zM15.352 3.977h1.316c3.916 0 4.38 0.013 5.925 0.084 1.43 0.064 2.207 0.304 2.724 0.504 0.684 0.266 1.173 0.585 1.687 1.098s0.831 1.001 1.096 1.687c0.202 0.515 0.44 1.293 0.504 2.723 0.071 1.546 0.086 2.009 0.086 5.924s-0.015 4.38-0.086 5.925c-0.064 1.43-0.304 2.206-0.504 2.723-0.235 0.637-0.611 1.213-1.098 1.685-0.513 0.513-1.001 0.831-1.687 1.096-0.513 0.202-1.291 0.44-2.723 0.506-1.546 0.070-2.009 0.086-5.925 0.086s-4.382-0.017-5.927-0.086c-1.43-0.066-2.206-0.304-2.723-0.506-0.637-0.235-1.213-0.609-1.687-1.096-0.488-0.473-0.864-1.049-1.1-1.687-0.2-0.515-0.44-1.293-0.504-2.723-0.070-1.546-0.084-2.009-0.084-5.927 0-3.916 0.015-4.378 0.084-5.924 0.066-1.43 0.304-2.207 0.506-2.724 0.266-0.684 0.585-1.173 1.098-1.687s1.001-0.83 1.687-1.096c0.517-0.202 1.293-0.44 2.723-0.506 1.353-0.062 1.877-0.081 4.611-0.083v0.004zM24.497 6.412c-0.231 0-0.46 0.046-0.673 0.134s-0.408 0.218-0.571 0.382c-0.163 0.163-0.293 0.357-0.381 0.571s-0.134 0.442-0.134 0.674c0 0.231 0.046 0.46 0.134 0.674s0.218 0.408 0.381 0.571c0.163 0.163 0.357 0.293 0.571 0.382s0.442 0.134 0.673 0.134c0.467 0 0.915-0.185 1.245-0.515s0.515-0.778 0.515-1.245-0.185-0.914-0.515-1.245c-0.33-0.33-0.778-0.516-1.245-0.516zM16.669 8.469c-0.999-0.016-1.991 0.168-2.919 0.539s-1.772 0.924-2.484 1.625-1.277 1.537-1.663 2.458c-0.386 0.922-0.585 1.911-0.585 2.91s0.199 1.988 0.585 2.91c0.386 0.922 0.951 1.757 1.663 2.458s1.556 1.253 2.484 1.625c0.928 0.372 1.92 0.555 2.919 0.539 1.977-0.031 3.863-0.838 5.251-2.247s2.165-3.307 2.165-5.285-0.778-3.876-2.165-5.285c-1.387-1.409-3.273-2.216-5.251-2.247zM16.669 11.111c1.297 0 2.54 0.515 3.457 1.432s1.432 2.161 1.432 3.457-0.515 2.54-1.432 3.457c-0.917 0.917-2.161 1.432-3.457 1.432s-2.541-0.515-3.457-1.432c-0.917-0.917-1.432-2.161-1.432-3.457s0.515-2.54 1.432-3.457c0.917-0.917 2.161-1.432 3.457-1.432z"></path>
</symbol>
<symbol id="icon-close-black" viewBox="0 0 32 32">
<path d="M32 3.223l-3.223-3.223-12.777 12.777-12.777-12.777-3.223 3.223 12.777 12.777-12.777 12.777 3.223 3.223 12.777-12.777 12.777 12.777 3.223-3.223-12.777-12.777 12.777-12.777z"></path>
</symbol>
</defs>
</svg>
